<svg xmlns="http://www.w3.org/2000/svg" height="20px" viewBox="0 -960 960 960" width="20px" fill="#000000"><path d="M213-117.21q-21-21.21-21-51T213.21-219q21.21-21 51-21T315-218.79q21 21.21 21 51T314.79-117q-21.21 21-51 21T213-117.21Zm432 0q-21-21.21-21-51T645.21-219q21.21-21 51-21T747-218.79q21 21.21 21 51T746.79-117q-21.21 21-51 21T645-117.21ZM253-696l83 192h301l82-192H253Zm-31-72h570q14 0 20.5 11t1.5 23L702.63-476.14Q694-456 676.5-444T637-432H317l-42 72h493v72H276q-43 0-63.5-36.15-20.5-36.16.5-71.85l52-90-131-306H48v-72h133l41 96Zm114 264h301-301Z"/></svg>